HIERARCHY
ROOT Pelvis
{
	OFFSET 0.000000 0.000000 0.000000
	CHANNELS 6 Xposition Yposition Zposition Xrotation Yrotation Zrotation
	JOINT LeftUpLeg_virtual
	{
		OFFSET 0.000000 0.000000 0.000000
		CHANNELS 3 Xrotation Yrotation Zrotation
		JOINT LeftUpLeg
		{
			OFFSET 18.735201 -5.666702 -4.541200
			CHANNELS 3 Xrotation Yrotation Zrotation
			JOINT LeftLeg
			{
				OFFSET -0.021200 -31.938179 0.493100
				CHANNELS 3 Xrotation Yrotation Zrotation
				JOINT LeftFoot
				{
					OFFSET 0.021200 -31.938179 -4.336299
					CHANNELS 3 Xrotation Yrotation Zrotation
					JOINT LeftToeBase
					{
						OFFSET 0.943001 -26.722000 15.023500
						CHANNELS 3 Xrotation Yrotation Zrotation
						End Site
						{
							OFFSET 0 0 0
						}
					}
				}
			}
		}
	}
	JOINT RightUpLeg_virtual
	{
		OFFSET 0.000000 0.000000 0.000000
		CHANNELS 3 Xrotation Yrotation Zrotation
		JOINT RightUpLeg
		{
			OFFSET -18.735201 -5.666702 -4.541200
			CHANNELS 3 Xrotation Yrotation Zrotation
			JOINT RightLeg
			{
				OFFSET 0.018946 -31.938133 0.493100
				CHANNELS 3 Xrotation Yrotation Zrotation
				JOINT RightFoot
				{
					OFFSET -0.018946 -31.938126 -4.336299
					CHANNELS 3 Xrotation Yrotation Zrotation
					JOINT RightToeBase
					{
						OFFSET -0.943001 -26.722004 15.023500
						CHANNELS 3 Xrotation Yrotation Zrotation
						End Site
						{
							OFFSET 0 0 0
						}
					}
				}
			}
		}
	}
	JOINT Hips_virtual
	{
		OFFSET 0.000000 0.000000 0.000000
		CHANNELS 3 Xrotation Yrotation Zrotation
		JOINT Hips
		{
			OFFSET -0.000000 -0.000000 -0.000000
			CHANNELS 3 Xrotation Yrotation Zrotation
			JOINT Spine
			{
				OFFSET 0.000000 10.199997 -0.299500
				CHANNELS 3 Xrotation Yrotation Zrotation
				JOINT Spine1
				{
					OFFSET 0.000000 11.900002 -1.516600
					CHANNELS 3 Xrotation Yrotation Zrotation
					JOINT Spine2
					{
						OFFSET 0.000000 13.600006 -2.842500
						CHANNELS 3 Xrotation Yrotation Zrotation
						JOINT Neck_virtual
						{
							OFFSET 0.000000 0.000000 0.000000
							CHANNELS 3 Xrotation Yrotation Zrotation
							JOINT Neck
							{
								OFFSET 0.000000 9.624100 -2.890100
								CHANNELS 3 Xrotation Yrotation Zrotation
								JOINT Head
								{
									OFFSET 0.000000 14.068802 -1.351900
									CHANNELS 3 Xrotation Yrotation Zrotation
									End Site
									{
										OFFSET 0 0 0
									}
								}
							}
						}
						JOINT LeftShoulder_virtual
						{
							OFFSET 0.000000 0.000000 0.000000
							CHANNELS 3 Xrotation Yrotation Zrotation
							JOINT LeftShoulder
							{
								OFFSET 15.263000 10.923401 -0.547700
								CHANNELS 3 Xrotation Yrotation Zrotation
								JOINT LeftArm
								{
									OFFSET 25.438599 -2.830597 -13.032500
									CHANNELS 3 Xrotation Yrotation Zrotation
									JOINT LeftForeArm
									{
										OFFSET 29.960503 0.000000 0.000000
										CHANNELS 3 Xrotation Yrotation Zrotation
										JOINT LeftHand
										{
											OFFSET 27.849251 0.000000 0.000000
											CHANNELS 3 Xrotation Yrotation Zrotation
											End Site
											{
												OFFSET 0 0 0
											}
										}
									}
								}
							}
						}
						JOINT RightShoulder_virtual
						{
							OFFSET 0.000000 0.000000 0.000000
							CHANNELS 3 Xrotation Yrotation Zrotation
							JOINT RightShoulder
							{
								OFFSET -15.263000 10.923401 -0.547700
								CHANNELS 3 Xrotation Yrotation Zrotation
								JOINT RightArm
								{
									OFFSET -25.438599 -2.830597 -13.032500
									CHANNELS 3 Xrotation Yrotation Zrotation
									JOINT RightForeArm
									{
										OFFSET -29.960503 0.000000 0.000000
										CHANNELS 3 Xrotation Yrotation Zrotation
										JOINT RightHand
										{
											OFFSET -27.849251 0.000000 0.000000
											CHANNELS 3 Xrotation Yrotation Zrotation
											End Site
											{
												OFFSET 0 0 0
											}
										}
									}
								}
							}
						}
					}
				}
			}
		}
	}
}
MOTION
Frames: 11
Frame Time: 0.03333333
0.324144 44.699585 0.161850 0.000000 0.000000 0.000000 0.609056 -23.910848 9.564919 -87.562335 -21.273338 50.454307 74.991557 4.075794 -6.067870 36.972477 -3.088828 -13.560970 0.000000 0.000000 0.000000 0.609056 -23.910848 9.564919 -22.595164 2.425610 -20.758659 103.518299 12.609157 -0.364534 29.332719 5.104737 28.747563 0.000000 0.000000 0.000000 0.609056 -23.910848 9.564919 -0.000000 -0.000001 -0.000001 2.848115 -1.655074 -6.209305 2.227983 -1.286567 -3.027762 0.000000 0.000000 0.000000 2.233816 -1.285667 -3.025124 -1.563945 1.339769 1.150766 0.000000 0.000000 0.000000 2.233816 -1.285667 -3.025124 0.452721 1.693816 1.739611 -1.798692 -11.700847 -58.798667 -0.000077 -83.306718 -0.000044 0.000000 0.000000 0.000000 2.233816 -1.285667 -3.025124 5.136812 17.382615 7.477152 14.034096 22.826745 31.042281 179.999991 58.256043 179.999991 0.000000 0.000000 0.000000 
0.318246 44.725349 0.184744 0.000000 0.000000 0.000000 0.640945 -23.872746 9.570102 -87.569985 -21.294537 50.410874 75.002307 4.100789 -6.113442 36.949913 -3.074091 -13.508199 0.000000 0.000000 0.000000 0.640945 -23.872746 9.570102 -22.703827 2.423360 -20.750888 103.630068 12.500565 -0.344926 29.267275 5.065100 28.626108 0.000000 0.000000 0.000000 0.640945 -23.872746 9.570102 0.000000 0.000000 0.000000 2.845233 -1.667829 -6.213563 2.224217 -1.288402 -3.033396 0.000000 0.000000 0.000000 2.230124 -1.286487 -3.030590 -1.548063 1.339594 1.155662 0.000000 0.000000 0.000000 2.230124 -1.286487 -3.030590 0.482385 1.632737 1.765587 -1.851249 -11.677336 -58.833194 -0.000171 -83.371167 -0.000148 0.000000 0.000000 0.000000 2.230124 -1.286487 -3.030590 5.151218 17.427060 7.474816 14.053427 22.660452 31.058117 -179.999950 58.187659 179.999937 0.000000 0.000000 0.000000 
0.312176 44.748932 0.202227 0.000000 0.000000 0.000000 0.668220 -23.838431 9.574365 -87.568305 -21.317379 50.368328 75.005695 4.130652 -6.157828 36.934716 -3.061947 -13.461055 0.000000 0.000000 0.000000 0.668220 -23.838431 9.574365 -22.793116 2.416034 -20.743628 103.724926 12.396956 -0.329753 29.203512 5.032002 28.532127 0.000000 0.000000 0.000000 0.668220 -23.838431 9.574365 0.000001 0.000001 -0.000000 2.846867 -1.679625 -6.217858 2.223864 -1.290194 -3.038301 0.000000 0.000000 0.000000 2.230373 -1.288404 -3.035256 -1.533446 1.341770 1.158237 0.000000 0.000000 0.000000 2.230373 -1.288404 -3.035256 0.506470 1.585641 1.768911 -1.905201 -11.648053 -58.840598 -0.000156 -83.445931 -0.000153 0.000000 0.000000 0.000000 2.230373 -1.288404 -3.035256 5.163598 17.463962 7.466052 14.080607 22.520694 31.066829 179.999991 58.113333 179.999991 0.000000 0.000000 0.000000 
0.305120 44.770149 0.213711 0.000000 0.000000 0.000000 0.691919 -23.813251 9.579701 -87.548368 -21.341597 50.335810 75.002492 4.163023 -6.201806 36.922398 -3.055511 -13.433796 0.000000 0.000000 0.000000 0.691919 -23.813251 9.579701 -22.865047 2.409335 -20.738481 103.801848 12.302684 -0.319052 29.143700 5.005720 28.465486 0.000000 0.000000 0.000000 0.691919 -23.813251 9.579701 0.000000 0.000000 0.000000 2.852509 -1.691320 -6.223035 2.225576 -1.291794 -3.043522 0.000000 0.000000 0.000000 2.232484 -1.289740 -3.040206 -1.520207 1.345446 1.157835 0.000000 0.000000 0.000000 2.232484 -1.289740 -3.040206 0.522517 1.557777 1.745667 -1.958945 -11.606917 -58.821548 0.000240 -83.536799 0.000254 0.000000 0.000000 0.000000 2.232484 -1.289740 -3.040206 5.172908 17.491985 7.451947 14.105763 22.416237 31.064093 -179.999978 58.048637 179.999978 0.000000 0.000000 0.000000 
0.296506 44.788910 0.219315 0.000000 0.000000 0.000000 0.712847 -23.799557 9.589842 -87.507571 -21.363172 50.315108 74.990464 4.197692 -6.244885 36.913054 -3.054928 -13.425727 0.000000 0.000000 0.000000 0.712847 -23.799557 9.589842 -22.922316 2.407005 -20.734976 103.861195 12.222034 -0.313524 29.090763 4.986142 28.423757 0.000000 0.000000 0.000000 0.712847 -23.799557 9.589842 0.000000 0.000000 0.000000 2.860660 -1.702952 -6.229740 2.230086 -1.293039 -3.049935 0.000000 0.000000 0.000000 2.235820 -1.290963 -3.046373 -1.507751 1.350298 1.154898 0.000000 0.000000 0.000000 2.235820 -1.290963 -3.046373 0.530838 1.548088 1.698934 -2.011594 -11.548416 -58.783402 0.000269 -83.644143 0.000289 0.000000 0.000000 0.000000 2.235820 -1.290963 -3.046373 5.178690 17.514111 7.436940 14.117866 22.346437 31.052147 179.999991 58.006905 180.000005 0.000000 0.000000 0.000000 
0.286078 44.804955 0.219646 0.000000 0.000000 0.000000 0.731686 -23.796495 9.604768 -87.446864 -21.381443 50.308322 74.970199 4.232040 -6.287543 36.905404 -3.060573 -13.439823 0.000000 0.000000 0.000000 0.731686 -23.796495 9.604768 -22.967612 2.410510 -20.732652 103.903706 12.157634 -0.310337 29.047647 4.972788 28.401861 0.000000 0.000000 0.000000 0.731686 -23.796495 9.604768 0.000000 0.000001 0.000000 2.869528 -1.714014 -6.238649 2.235915 -1.293871 -3.057968 0.000000 0.000000 0.000000 2.241406 -1.292104 -3.054251 -1.495672 1.355707 1.151261 0.000000 0.000000 0.000000 2.241406 -1.292104 -3.054251 0.533460 1.550892 1.639881 -2.062365 -11.470476 -58.740119 -0.000088 -83.761936 -0.000098 0.000000 0.000000 0.000000 2.241406 -1.292104 -3.054251 5.184947 17.530369 7.429134 14.110163 22.303897 31.019256 179.999991 57.993914 -179.999991 0.000000 0.000000 0.000000 
0.273847 44.818298 0.215981 0.000000 0.000000 0.000000 0.748722 -23.800865 9.623351 -87.370598 -21.396831 50.314274 74.942659 4.264367 -6.331030 36.899605 -3.071568 -13.472832 0.000000 0.000000 0.000000 0.748722 -23.800865 9.623351 -23.003758 2.418954 -20.729424 103.931813 12.110900 -0.308687 29.014978 4.964441 28.394107 0.000000 0.000000 0.000000 0.748722 -23.800865 9.623351 0.000000 -0.000001 0.000001 2.877828 -1.723821 -6.249894 2.242118 -1.294385 -3.067452 0.000000 0.000000 0.000000 2.247327 -1.293190 -3.063674 -1.484048 1.360819 1.149195 0.000000 0.000000 0.000000 2.247327 -1.293190 -3.063674 0.533404 1.559033 1.582765 -2.109734 -11.376571 -58.705838 0.000008 -83.880221 0.000024 0.000000 0.000000 0.000000 2.247327 -1.293190 -3.063674 5.188732 17.547031 7.437168 14.085635 22.272087 30.964297 -179.999991 58.006925 179.999991 0.000000 0.000000 0.000000 
0.260145 44.829178 0.209915 0.000000 0.000000 0.000000 0.763537 -23.808629 9.643617 -87.284237 -21.410398 50.330008 74.909963 4.293387 -6.376667 36.895541 -3.085919 -13.518245 0.000000 0.000000 0.000000 0.763537 -23.808629 9.643617 -23.032677 2.429675 -20.723595 103.948506 12.081700 -0.307715 28.990922 4.959590 28.393947 0.000000 0.000000 0.000000 0.763537 -23.808629 9.643617 0.000000 -0.000002 0.000000 2.885193 -1.731535 -6.262949 2.248161 -1.294709 -3.077664 0.000000 0.000000 0.000000 2.253088 -1.294212 -3.073917 -1.473439 1.364941 1.150231 0.000000 0.000000 0.000000 2.253088 -1.294212 -3.073917 0.532703 1.566415 1.538224 -2.151672 -11.275740 -58.687909 0.000319 -83.988487 0.000302 0.000000 0.000000 0.000000 2.253088 -1.294212 -3.073917 5.192396 17.565520 7.464874 14.049312 22.242417 30.884859 -179.999978 58.037279 179.999978 0.000000 0.000000 0.000000 
0.245484 44.838112 0.203032 0.000000 0.000000 0.000000 0.774939 -23.816209 9.663487 -87.192856 -21.422921 50.351683 74.874255 4.318634 -6.424856 36.893533 -3.101641 -13.568888 0.000000 0.000000 0.000000 0.774939 -23.816209 9.663487 -23.055059 2.439680 -20.714487 103.957235 12.068452 -0.306655 28.972549 4.955272 28.395526 0.000000 0.000000 0.000000 0.774939 -23.816209 9.663487 0.000000 0.000001 0.000000 2.892107 -1.735143 -6.276616 2.254015 -1.294917 -3.087604 0.000000 0.000000 0.000000 2.258683 -1.295232 -3.083953 -1.464699 1.367999 1.154467 0.000000 0.000000 0.000000 2.258683 -1.295232 -3.083953 0.533449 1.569942 1.508527 -2.186856 -11.180673 -58.684418 0.000021 -84.079171 0.000058 0.000000 0.000000 0.000000 2.258683 -1.295232 -3.083953 5.196403 17.586089 7.510235 14.008885 22.211271 30.786863 -179.999978 58.074325 179.999978 0.000000 0.000000 0.000000 
0.230380 44.845619 0.196468 0.000000 0.000000 0.000000 0.781341 -23.821343 9.681375 -87.100737 -21.434547 50.374991 74.837877 4.340004 -6.474350 36.893335 -3.116875 -13.618717 0.000000 0.000000 0.000000 0.781341 -23.821343 9.681375 -23.070658 2.446374 -20.702262 103.961046 12.068504 -0.305693 28.956389 4.950436 28.395058 0.000000 0.000000 0.000000 0.781341 -23.821343 9.681375 0.000000 0.000000 -0.000001 2.899200 -1.736872 -6.289323 2.259929 -1.295120 -3.096258 0.000000 0.000000 0.000000 2.264342 -1.296226 -3.092742 -1.458139 1.370233 1.160007 0.000000 0.000000 0.000000 2.264342 -1.296226 -3.092742 0.535858 1.568547 1.487447 -2.215489 -11.101085 -58.686495 -0.000446 -84.149508 -0.000406 0.000000 0.000000 0.000000 2.264342 -1.296226 -3.092742 5.200599 17.606945 7.565128 13.970910 22.181644 30.682880 179.999964 58.110054 -179.999978 0.000000 0.000000 0.000000 
0.215072 44.852379 0.190956 0.000000 0.000000 0.000000 0.781448 -23.823392 9.696385 -87.010517 -21.444477 50.396363 74.802114 4.358022 -6.522389 36.894664 -3.130326 -13.663162 0.000000 0.000000 0.000000 0.781448 -23.823392 9.696385 -23.078509 2.448302 -20.687675 103.961770 12.078566 -0.305464 28.939105 4.944432 28.390989 0.000000 0.000000 0.000000 0.781448 -23.823392 9.696385 0.000000 0.000002 0.000000 2.906865 -1.737870 -6.299417 2.266127 -1.295400 -3.102835 0.000000 0.000000 0.000000 2.270280 -1.297258 -3.099465 -1.453657 1.372460 1.164167 0.000000 0.000000 0.000000 2.270280 -1.297258 -3.099465 0.539273 1.564966 1.464616 -2.237655 -11.038663 -58.684569 0.000002 -84.201534 0.000025 0.000000 0.000000 0.000000 2.270280 -1.297258 -3.099465 5.204297 17.625119 7.617473 13.938724 22.162067 30.589333 -180.000005 58.142211 -179.999991 0.000000 0.000000 0.000000 
